<svg xmlns="http://www.w3.org/2000/svg" style="display: none;"><symbol id="pin" viewBox="0 0 512 512"><title>pin</title><path d="M256,0C161.896,0,85.333,76.563,85.333,170.667c0,28.25,7.063,56.26,20.49,81.104L246.667,506.5 c1.875,3.396,5.448,5.5,9.333,5.5s7.458-2.104,9.333-5.5l140.896-254.813c13.375-24.76,20.438-52.771,20.438-81.021 C426.667,76.563,350.104,0,256,0z M256,256c-47.052,0-85.333-38.281-85.333-85.333c0-47.052,38.281-85.333,85.333-85.333 s85.333,38.281,85.333,85.333C341.333,217.719,303.052,256,256,256z"/></symbol><symbol id="left-arrow" viewBox="0 0 512 512"><title>left-arrow</title><path d="M492,236H68.442l70.164-69.824c7.829-7.792,7.859-20.455,0.067-28.284c-7.792-7.83-20.456-7.859-28.285-0.068 l-104.504,104c-0.007,0.006-0.012,0.013-0.018,0.019c-7.809,7.792-7.834,20.496-0.002,28.314c0.007,0.006,0.012,0.013,0.018,0.019 l104.504,104c7.828,7.79,20.492,7.763,28.285-0.068c7.792-7.829,7.762-20.492-0.067-28.284L68.442,276H492 c11.046,0,20-8.954,20-20C512,244.954,503.046,236,492,236z"/></symbol><symbol id="loupe" viewBox="0 0 512.005 512.005"><title>loupe</title><path d="M505.749,475.587l-145.6-145.6c28.203-34.837,45.184-79.104,45.184-127.317c0-111.744-90.923-202.667-202.667-202.667 S0,90.925,0,202.669s90.923,202.667,202.667,202.667c48.213,0,92.48-16.981,127.317-45.184l145.6,145.6 c4.16,4.16,9.621,6.251,15.083,6.251s10.923-2.091,15.083-6.251C514.091,497.411,514.091,483.928,505.749,475.587z M202.667,362.669c-88.235,0-160-71.765-160-160s71.765-160,160-160s160,71.765,160,160S290.901,362.669,202.667,362.669z"/></symbol><symbol id="notification-bell" viewBox="0 0 512 512"><title>notification-bell</title><g id="Notification_1_"><g><path d="m466 452h-420v-31c41.353 0 75-33.647 75-75v-120c0-61.758 41.66-115.474 101.309-130.635 20.625-5.83 46.392-5.918 67.749.088 59.282 15.073 100.942 68.789 100.942 130.547v120c0 41.353 33.647 75 75 75z"/></g><g><path d="m472.464 321.464-21.211-21.211c40.942-40.942 40.942-107.563 0-148.506l21.211-21.211c52.646 52.632 52.646 138.296 0 190.928z"/></g><g><path d="m39.536 321.464c-52.646-52.632-52.646-138.296 0-190.928l21.211 21.211c-40.942 40.942-40.942 107.563 0 148.506z"/></g><g><path d="m82.973 279.027c-14.165-14.15-21.973-32.988-21.973-53.027s7.808-38.877 21.973-53.027l21.211 21.211c-8.496 8.496-13.184 19.79-13.184 31.816s4.688 23.32 13.184 31.816z"/></g><g><path d="m429.027 279.027-21.211-21.211c8.497-8.496 13.184-19.79 13.184-31.816s-4.688-23.32-13.184-31.816l21.211-21.211c14.165 14.15 21.973 32.988 21.973 53.027s-7.808 38.877-21.973 53.027z"/></g></g><path d="m214.911 66.288c12.026-3.413 26.47-5.317 41.001-5.317 14.619 0 29.238 1.934 42.261 5.596.981.249 1.855.714 2.827.981v-22.548c0-24.814-20.186-45-45-45s-45 20.186-45 45v22.641c1.342-.377 2.554-1.009 3.911-1.353z"/><path d="m204.344 482c10.406 17.847 29.542 30 51.656 30s41.25-12.153 51.656-30z"/></symbol><symbol id="settings" viewBox="0 0 368 368"><title>settings</title><g> <g> <path d="M344,144h-29.952c-2.512-8.2-5.8-16.12-9.792-23.664l21.16-21.16c4.528-4.528,7.024-10.56,7.024-16.984 c0-6.416-2.496-12.448-7.024-16.976l-22.64-22.64c-9.048-9.048-24.888-9.072-33.952,0l-21.16,21.16 c-7.536-3.992-15.464-7.272-23.664-9.792V24c0-13.232-10.768-24-24-24h-32c-13.232,0-24,10.768-24,24v29.952 c-8.2,2.52-16.12,5.8-23.664,9.792l-21.168-21.16c-9.36-9.36-24.592-9.36-33.952,0l-22.648,22.64 c-9.352,9.36-9.352,24.592,0,33.952l21.16,21.168c-3.992,7.536-7.272,15.464-9.792,23.664H24c-13.232,0-24,10.768-24,24v32 C0,213.232,10.768,224,24,224h29.952c2.52,8.2,5.8,16.12,9.792,23.664l-21.16,21.168c-9.36,9.36-9.36,24.592,0,33.952 l22.64,22.648c9.36,9.352,24.592,9.352,33.952,0l21.168-21.16c7.536,3.992,15.464,7.272,23.664,9.792V344 c0,13.232,10.768,24,24,24h32c13.232,0,24-10.768,24-24v-29.952c8.2-2.52,16.128-5.8,23.664-9.792l21.16,21.168 c9.072,9.064,24.912,9.048,33.952,0l22.64-22.64c4.528-4.528,7.024-10.56,7.024-16.976c0-6.424-2.496-12.448-7.024-16.976 l-21.16-21.168c3.992-7.536,7.272-15.464,9.792-23.664H344c13.232,0,24-10.768,24-24v-32C368,154.768,357.232,144,344,144z M352,200c0,4.408-3.584,8-8,8h-36c-3.648,0-6.832,2.472-7.744,6c-2.832,10.92-7.144,21.344-12.832,30.976 c-1.848,3.144-1.344,7.144,1.232,9.72l25.44,25.448c1.504,1.504,2.336,3.512,2.336,5.664c0,2.152-0.832,4.16-2.336,5.664 l-22.64,22.64c-3.008,3.008-8.312,3.008-11.328,0l-25.44-25.44c-2.576-2.584-6.576-3.08-9.728-1.232 c-9.616,5.68-20.04,10-30.968,12.824c-3.52,0.904-5.992,4.088-5.992,7.736v36c0,4.408-3.584,8-8,8h-32c-4.408,0-8-3.592-8-8v-36 c0-3.648-2.472-6.832-6-7.744c-10.92-2.824-21.344-7.136-30.976-12.824c-1.264-0.752-2.664-1.112-4.064-1.112 c-2.072,0-4.12,0.8-5.664,2.344l-25.44,25.44c-3.128,3.12-8.2,3.12-11.328,0l-22.64-22.64c-3.128-3.128-3.128-8.208,0-11.328 l25.44-25.44c2.584-2.584,3.088-6.584,1.232-9.72c-5.68-9.632-10-20.048-12.824-30.976c-0.904-3.528-4.088-6-7.736-6H24 c-4.408,0-8-3.592-8-8v-32c0-4.408,3.592-8,8-8h36c3.648,0,6.832-2.472,7.744-6c2.824-10.92,7.136-21.344,12.824-30.976 c1.856-3.144,1.352-7.144-1.232-9.72l-25.44-25.44c-3.12-3.12-3.12-8.2,0-11.328l22.64-22.64c3.128-3.128,8.2-3.12,11.328,0 l25.44,25.44c2.584,2.584,6.576,3.096,9.72,1.232c9.632-5.68,20.048-10,30.976-12.824c3.528-0.912,6-4.096,6-7.744V24 c0-4.408,3.592-8,8-8h32c4.416,0,8,3.592,8,8v36c0,3.648,2.472,6.832,6,7.744c10.928,2.824,21.352,7.144,30.968,12.824 c3.152,1.856,7.152,1.36,9.728-1.232l25.44-25.44c3.016-3.024,8.32-3.016,11.328,0l22.64,22.64 c1.504,1.504,2.336,3.52,2.336,5.664s-0.832,4.16-2.336,5.664l-25.44,25.44c-2.576,2.584-3.088,6.584-1.232,9.72 c5.688,9.632,10,20.048,12.832,30.976c0.904,3.528,4.088,6,7.736,6h36c4.416,0,8,3.592,8,8V200z"/> </g> </g><g> <g> <path d="M184,112c-39.696,0-72,32.304-72,72s32.304,72,72,72c39.704,0,72-32.304,72-72S223.704,112,184,112z M184,240 c-30.88,0-56-25.12-56-56s25.12-56,56-56c30.872,0,56,25.12,56,56S214.872,240,184,240z"/> </g> </g></symbol><symbol id="group" viewBox="0 0 505.4 505.4"><title>group</title><path d="M437.1,233.45c14.8-10.4,24.6-27.7,24.6-47.2c0-31.9-25.8-57.7-57.7-57.7c-31.9,0-57.7,25.8-57.7,57.7 c0,19.5,9.7,36.8,24.6,47.2c-12.7,4.4-24.3,11.2-34.1,20c-13.5-11.5-29.4-20.3-46.8-25.5c21.1-12.8,35.3-36.1,35.3-62.6 c0-40.4-32.7-73.1-73.1-73.1c-40.4,0-73.1,32.8-73.1,73.1c0,26.5,14.1,49.8,35.3,62.6c-17.2,5.2-32.9,13.9-46.3,25.2 c-9.8-8.6-21.2-15.3-33.7-19.6c14.8-10.4,24.6-27.7,24.6-47.2c0-31.9-25.8-57.7-57.7-57.7s-57.7,25.8-57.7,57.7 c0,19.5,9.7,36.8,24.6,47.2C28.5,247.25,0,284.95,0,329.25v6.6c0,0.2,0.2,0.4,0.4,0.4h122.3c-0.7,5.5-1.1,11.2-1.1,16.9v6.8 c0,29.4,23.8,53.2,53.2,53.2h155c29.4,0,53.2-23.8,53.2-53.2v-6.8c0-5.7-0.4-11.4-1.1-16.9H505c0.2,0,0.4-0.2,0.4-0.4v-6.6 C505.2,284.85,476.8,247.15,437.1,233.45z M362.3,186.15c0-23,18.7-41.7,41.7-41.7s41.7,18.7,41.7,41.7 c0,22.7-18.3,41.2-40.9,41.7c-0.3,0-0.5,0-0.8,0s-0.5,0-0.8,0C380.5,227.45,362.3,208.95,362.3,186.15z M194.9,165.35 c0-31.5,25.6-57.1,57.1-57.1s57.1,25.6,57.1,57.1c0,30.4-23.9,55.3-53.8,57c-1.1,0-2.2,0-3.3,0c-1.1,0-2.2,0-3.3,0 C218.8,220.65,194.9,195.75,194.9,165.35z M59.3,186.15c0-23,18.7-41.7,41.7-41.7s41.7,18.7,41.7,41.7c0,22.7-18.3,41.2-40.9,41.7 c-0.3,0-0.5,0-0.8,0s-0.5,0-0.8,0C77.6,227.45,59.3,208.95,59.3,186.15z M125.5,320.15H16.2c4.5-42.6,40.5-76,84.2-76.3 c0.2,0,0.4,0,0.6,0s0.4,0,0.6,0c20.8,0.1,39.8,7.8,54.5,20.3C141.7,279.75,131,298.95,125.5,320.15z M366.8,359.95 c0,20.5-16.7,37.2-37.2,37.2h-155c-20.5,0-37.2-16.7-37.2-37.2v-6.8c0-62.1,49.6-112.9,111.3-114.7c1.1,0.1,2.3,0.1,3.4,0.1 s2.3,0,3.4-0.1c61.7,1.8,111.3,52.6,111.3,114.7V359.95z M378.7,320.15c-5.5-21.1-16-40-30.3-55.6c14.8-12.8,34-20.5,55-20.7 c0.2,0,0.4,0,0.6,0s0.4,0,0.6,0c43.7,0.3,79.7,33.7,84.2,76.3H378.7z"/></symbol><symbol id="home" viewBox="0 0 460.298 460.297"><title>home</title><path d="M230.149,120.939L65.986,256.274c0,0.191-0.048,0.472-0.144,0.855c-0.094,0.38-0.144,0.656-0.144,0.852v137.041 c0,4.948,1.809,9.236,5.426,12.847c3.616,3.613,7.898,5.431,12.847,5.431h109.63V303.664h73.097v109.64h109.629 c4.948,0,9.236-1.814,12.847-5.435c3.617-3.607,5.432-7.898,5.432-12.847V257.981c0-0.76-0.104-1.334-0.288-1.707L230.149,120.939 z"/><path d="M457.122,225.438L394.6,173.476V56.989c0-2.663-0.856-4.853-2.574-6.567c-1.704-1.712-3.894-2.568-6.563-2.568h-54.816 c-2.666,0-4.855,0.856-6.57,2.568c-1.711,1.714-2.566,3.905-2.566,6.567v55.673l-69.662-58.245 c-6.084-4.949-13.318-7.423-21.694-7.423c-8.375,0-15.608,2.474-21.698,7.423L3.172,225.438c-1.903,1.52-2.946,3.566-3.14,6.136 c-0.193,2.568,0.472,4.811,1.997,6.713l17.701,21.128c1.525,1.712,3.521,2.759,5.996,3.142c2.285,0.192,4.57-0.476,6.855-1.998 L230.149,95.817l197.57,164.741c1.526,1.328,3.521,1.991,5.996,1.991h0.858c2.471-0.376,4.463-1.43,5.996-3.138l17.703-21.125 c1.522-1.906,2.189-4.145,1.991-6.716C460.068,229.007,459.021,226.961,457.122,225.438z"/></symbol><symbol id="speech-bubble" viewBox="0 0 511.096 511.096"><title>speech-bubble</title><path d="m74.414 480.548h-36.214l25.607-25.607c13.807-13.807 22.429-31.765 24.747-51.246-59.127-38.802-88.554-95.014-88.554-153.944 0-108.719 99.923-219.203 256.414-219.203 165.785 0 254.682 101.666 254.682 209.678 0 108.724-89.836 210.322-254.682 210.322-28.877 0-59.01-3.855-85.913-10.928-25.467 26.121-59.973 40.928-96.087 40.928z"/></symbol><symbol id="bar-chart" viewBox="0 0 480 480"><title>bar-chart</title><rect y="464" width="480" height="16"/><path d="M32,448h80c4.418,0,8-3.582,8-8V296c0-4.418-3.582-8-8-8H32c-4.418,0-8,3.582-8,8v144C24,444.418,27.582,448,32,448z M40,304h64v128H40V304z"/><path d="M256,448h80c4.418,0,8-3.582,8-8V200c0-4.418-3.582-8-8-8h-80c-4.418,0-8,3.582-8,8v240C248,444.418,251.582,448,256,448 z M264,208h64v224h-64V208z"/><path d="M144,448h80c4.418,0,8-3.582,8-8V104c0-4.418-3.582-8-8-8h-80c-4.418,0-8,3.582-8,8v336C136,444.418,139.582,448,144,448 z M152,112h64v320h-64V112z"/><path d="M368,448h80c4.418,0,8-3.582,8-8V8c0-4.418-3.582-8-8-8h-80c-4.418,0-8,3.582-8,8v432C360,444.418,363.582,448,368,448z M376,16h64v416h-64V16z"/></symbol><symbol id="check" viewBox="0 0 367.805 367.805"><title>check</title><path style="fill:#3BB54A;" d="M183.903,0.001c101.566,0,183.902,82.336,183.902,183.902s-82.336,183.902-183.902,183.902 S0.001,285.469,0.001,183.903l0,0C-0.288,82.625,81.579,0.29,182.856,0.001C183.205,0,183.554,0,183.903,0.001z"/><polygon style="fill:#D4E1F4;" points="285.78,133.225 155.168,263.837 82.025,191.217 111.805,161.96 155.168,204.801 256.001,103.968 "/></symbol></svg>